<svg xmlns="http://www.w3.org/2000/svg" viewBox="0 0 480 360" width="480" height="360"><rect width="480" height="360" fill="#1b1c1f"/><defs><linearGradient id="sh" x1="0" x2="1"><stop offset="0" stop-color="#000" stop-opacity=".55"/><stop offset=".18" stop-color="#000" stop-opacity="0"/><stop offset=".82" stop-color="#000" stop-opacity="0"/><stop offset="1" stop-color="#000" stop-opacity=".55"/></linearGradient></defs><rect x="60" y="0" width="360" height="360" fill="#2c2e33"/><path d="M60 -14 Q200.0 -46.2 240.0 -60 Q280.0 -46.2 420 -14" stroke="#17181b" stroke-width="8" fill="none"/><path d="M135 -37 l10 -4 l10 4 l10 -4 l10 4 l10 -4" stroke="#1f2024" stroke-width="2.2" fill="none"/><path d="M60 32 Q200.0 -0.20000000000000107 240.0 -14 Q280.0 -0.20000000000000107 420 32" stroke="#17181b" stroke-width="8" fill="none"/><path d="M122 9 l10 -4 l10 4 l10 -4 l10 4 l10 -4" stroke="#1f2024" stroke-width="2.2" fill="none"/><path d="M60 78 Q200.0 45.8 240.0 32 Q280.0 45.8 420 78" stroke="#17181b" stroke-width="8" fill="none"/><path d="M129 55 l10 -4 l10 4 l10 -4 l10 4 l10 -4" stroke="#1f2024" stroke-width="2.2" fill="none"/><path d="M60 124 Q200.0 91.8 240.0 78 Q280.0 91.8 420 124" stroke="#17181b" stroke-width="8" fill="none"/><path d="M123 101 l10 -4 l10 4 l10 -4 l10 4 l10 -4" stroke="#1f2024" stroke-width="2.2" fill="none"/><path d="M60 170 Q200.0 137.8 240.0 124 Q280.0 137.8 420 170" stroke="#17181b" stroke-width="8" fill="none"/><path d="M251 147 l10 -4 l10 4 l10 -4 l10 4 l10 -4" stroke="#1f2024" stroke-width="2.2" fill="none"/><path d="M60 216 Q200.0 183.8 240.0 170 Q280.0 183.8 420 216" stroke="#17181b" stroke-width="8" fill="none"/><path d="M254 193 l10 -4 l10 4 l10 -4 l10 4 l10 -4" stroke="#1f2024" stroke-width="2.2" fill="none"/><path d="M60 262 Q200.0 229.8 240.0 216 Q280.0 229.8 420 262" stroke="#17181b" stroke-width="8" fill="none"/><path d="M103 239 l10 -4 l10 4 l10 -4 l10 4 l10 -4" stroke="#1f2024" stroke-width="2.2" fill="none"/><path d="M60 308 Q200.0 275.8 240.0 262 Q280.0 275.8 420 308" stroke="#17181b" stroke-width="8" fill="none"/><path d="M260 285 l10 -4 l10 4 l10 -4 l10 4 l10 -4" stroke="#1f2024" stroke-width="2.2" fill="none"/><path d="M60 354 Q200.0 321.8 240.0 308 Q280.0 321.8 420 354" stroke="#17181b" stroke-width="8" fill="none"/><path d="M273 331 l10 -4 l10 4 l10 -4 l10 4 l10 -4" stroke="#1f2024" stroke-width="2.2" fill="none"/><path d="M60 400 Q200.0 367.8 240.0 354 Q280.0 367.8 420 400" stroke="#17181b" stroke-width="8" fill="none"/><path d="M118 377 l10 -4 l10 4 l10 -4 l10 4 l10 -4" stroke="#1f2024" stroke-width="2.2" fill="none"/><path d="M60 446 Q200.0 413.8 240.0 400 Q280.0 413.8 420 446" stroke="#17181b" stroke-width="8" fill="none"/><path d="M286 423 l10 -4 l10 4 l10 -4 l10 4 l10 -4" stroke="#1f2024" stroke-width="2.2" fill="none"/><rect x="123.0" y="0" width="18" height="360" fill="#121315"/><rect x="195.0" y="0" width="18" height="360" fill="#121315"/><rect x="267.0" y="0" width="18" height="360" fill="#121315"/><rect x="339.0" y="0" width="18" height="360" fill="#121315"/><rect width="480" height="360" fill="url(#sh)"/><text x="240.0" y="342" font-family="Helvetica,Arial,sans-serif" font-size="17" font-weight="600" fill="#ffffff" fill-opacity=".75" text-anchor="middle">Observe GSi-6 · tread</text><g><rect x="370" y="14" width="96" height="30" rx="15" fill="#ffd60a"/><text x="418" y="35" font-family="Helvetica,Arial,sans-serif" font-size="16" font-weight="800" letter-spacing="1.5" fill="#000" text-anchor="middle">SAMPLE</text></g></svg>