<svg xmlns="http://www.w3.org/2000/svg" viewBox="0 0 480 360" width="480" height="360"><rect width="480" height="360" fill="#1b1c1f"/><defs><linearGradient id="sh" x1="0" x2="1"><stop offset="0" stop-color="#000" stop-opacity=".55"/><stop offset=".18" stop-color="#000" stop-opacity="0"/><stop offset=".82" stop-color="#000" stop-opacity="0"/><stop offset="1" stop-color="#000" stop-opacity=".55"/></linearGradient></defs><rect x="60" y="0" width="360" height="360" fill="#2c2e33"/><path d="M60 -20 Q200.0 -48.0 240.0 -60 Q280.0 -48.0 420 -20" stroke="#17181b" stroke-width="8" fill="none"/><path d="M100 -47 l10 -4 l10 4 l10 -4 l10 4 l10 -4" stroke="#1f2024" stroke-width="2.2" fill="none"/><path d="M157 -33 l10 -4 l10 4 l10 -4 l10 4 l10 -4" stroke="#1f2024" stroke-width="2.2" fill="none"/><path d="M60 20 Q200.0 -8.0 240.0 -20 Q280.0 -8.0 420 20" stroke="#17181b" stroke-width="8" fill="none"/><path d="M166 -7 l10 -4 l10 4 l10 -4 l10 4 l10 -4" stroke="#1f2024" stroke-width="2.2" fill="none"/><path d="M85 7 l10 -4 l10 4 l10 -4 l10 4 l10 -4" stroke="#1f2024" stroke-width="2.2" fill="none"/><path d="M60 60 Q200.0 32.0 240.0 20 Q280.0 32.0 420 60" stroke="#17181b" stroke-width="8" fill="none"/><path d="M98 33 l10 -4 l10 4 l10 -4 l10 4 l10 -4" stroke="#1f2024" stroke-width="2.2" fill="none"/><path d="M203 47 l10 -4 l10 4 l10 -4 l10 4 l10 -4" stroke="#1f2024" stroke-width="2.2" fill="none"/><path d="M60 100 Q200.0 72.0 240.0 60 Q280.0 72.0 420 100" stroke="#17181b" stroke-width="8" fill="none"/><path d="M82 73 l10 -4 l10 4 l10 -4 l10 4 l10 -4" stroke="#1f2024" stroke-width="2.2" fill="none"/><path d="M109 87 l10 -4 l10 4 l10 -4 l10 4 l10 -4" stroke="#1f2024" stroke-width="2.2" fill="none"/><path d="M60 140 Q200.0 112.0 240.0 100 Q280.0 112.0 420 140" stroke="#17181b" stroke-width="8" fill="none"/><path d="M152 113 l10 -4 l10 4 l10 -4 l10 4 l10 -4" stroke="#1f2024" stroke-width="2.2" fill="none"/><path d="M286 127 l10 -4 l10 4 l10 -4 l10 4 l10 -4" stroke="#1f2024" stroke-width="2.2" fill="none"/><path d="M60 180 Q200.0 152.0 240.0 140 Q280.0 152.0 420 180" stroke="#17181b" stroke-width="8" fill="none"/><path d="M110 153 l10 -4 l10 4 l10 -4 l10 4 l10 -4" stroke="#1f2024" stroke-width="2.2" fill="none"/><path d="M324 167 l10 -4 l10 4 l10 -4 l10 4 l10 -4" stroke="#1f2024" stroke-width="2.2" fill="none"/><path d="M60 220 Q200.0 192.0 240.0 180 Q280.0 192.0 420 220" stroke="#17181b" stroke-width="8" fill="none"/><path d="M159 193 l10 -4 l10 4 l10 -4 l10 4 l10 -4" stroke="#1f2024" stroke-width="2.2" fill="none"/><path d="M298 207 l10 -4 l10 4 l10 -4 l10 4 l10 -4" stroke="#1f2024" stroke-width="2.2" fill="none"/><path d="M60 260 Q200.0 232.0 240.0 220 Q280.0 232.0 420 260" stroke="#17181b" stroke-width="8" fill="none"/><path d="M270 233 l10 -4 l10 4 l10 -4 l10 4 l10 -4" stroke="#1f2024" stroke-width="2.2" fill="none"/><path d="M246 247 l10 -4 l10 4 l10 -4 l10 4 l10 -4" stroke="#1f2024" stroke-width="2.2" fill="none"/><path d="M60 300 Q200.0 272.0 240.0 260 Q280.0 272.0 420 300" stroke="#17181b" stroke-width="8" fill="none"/><path d="M89 273 l10 -4 l10 4 l10 -4 l10 4 l10 -4" stroke="#1f2024" stroke-width="2.2" fill="none"/><path d="M310 287 l10 -4 l10 4 l10 -4 l10 4 l10 -4" stroke="#1f2024" stroke-width="2.2" fill="none"/><path d="M60 340 Q200.0 312.0 240.0 300 Q280.0 312.0 420 340" stroke="#17181b" stroke-width="8" fill="none"/><path d="M239 313 l10 -4 l10 4 l10 -4 l10 4 l10 -4" stroke="#1f2024" stroke-width="2.2" fill="none"/><path d="M97 327 l10 -4 l10 4 l10 -4 l10 4 l10 -4" stroke="#1f2024" stroke-width="2.2" fill="none"/><path d="M60 380 Q200.0 352.0 240.0 340 Q280.0 352.0 420 380" stroke="#17181b" stroke-width="8" fill="none"/><path d="M114 353 l10 -4 l10 4 l10 -4 l10 4 l10 -4" stroke="#1f2024" stroke-width="2.2" fill="none"/><path d="M149 367 l10 -4 l10 4 l10 -4 l10 4 l10 -4" stroke="#1f2024" stroke-width="2.2" fill="none"/><path d="M60 420 Q200.0 392.0 240.0 380 Q280.0 392.0 420 420" stroke="#17181b" stroke-width="8" fill="none"/><path d="M283 393 l10 -4 l10 4 l10 -4 l10 4 l10 -4" stroke="#1f2024" stroke-width="2.2" fill="none"/><path d="M309 407 l10 -4 l10 4 l10 -4 l10 4 l10 -4" stroke="#1f2024" stroke-width="2.2" fill="none"/><rect x="141.0" y="0" width="18" height="360" fill="#121315"/><rect x="231.0" y="0" width="18" height="360" fill="#121315"/><rect x="321.0" y="0" width="18" height="360" fill="#121315"/><rect width="480" height="360" fill="url(#sh)"/><text x="240.0" y="342" font-family="Helvetica,Arial,sans-serif" font-size="17" font-weight="600" fill="#ffffff" fill-opacity=".75" text-anchor="middle">X-Ice Snow SUV · tread</text><g><rect x="370" y="14" width="96" height="30" rx="15" fill="#ffd60a"/><text x="418" y="35" font-family="Helvetica,Arial,sans-serif" font-size="16" font-weight="800" letter-spacing="1.5" fill="#000" text-anchor="middle">SAMPLE</text></g></svg>