<svg xmlns="http://www.w3.org/2000/svg" viewBox="0 0 480 360" width="480" height="360"><rect width="480" height="360" fill="#1b1c1f"/><defs><linearGradient id="sh" x1="0" x2="1"><stop offset="0" stop-color="#000" stop-opacity=".55"/><stop offset=".18" stop-color="#000" stop-opacity="0"/><stop offset=".82" stop-color="#000" stop-opacity="0"/><stop offset="1" stop-color="#000" stop-opacity=".55"/></linearGradient></defs><rect x="60" y="0" width="360" height="360" fill="#2c2e33"/><path d="M60 -26 Q200.0 -49.8 240.0 -60 Q280.0 -49.8 420 -26" stroke="#17181b" stroke-width="8" fill="none"/><path d="M116 -49 l10 -4 l10 4 l10 -4 l10 4 l10 -4" stroke="#1f2024" stroke-width="2.2" fill="none"/><path d="M255 -37 l10 -4 l10 4 l10 -4 l10 4 l10 -4" stroke="#1f2024" stroke-width="2.2" fill="none"/><path d="M60 8 Q200.0 -15.8 240.0 -26 Q280.0 -15.8 420 8" stroke="#17181b" stroke-width="8" fill="none"/><path d="M91 -15 l10 -4 l10 4 l10 -4 l10 4 l10 -4" stroke="#1f2024" stroke-width="2.2" fill="none"/><path d="M115 -3 l10 -4 l10 4 l10 -4 l10 4 l10 -4" stroke="#1f2024" stroke-width="2.2" fill="none"/><path d="M60 42 Q200.0 18.2 240.0 8 Q280.0 18.2 420 42" stroke="#17181b" stroke-width="8" fill="none"/><path d="M323 19 l10 -4 l10 4 l10 -4 l10 4 l10 -4" stroke="#1f2024" stroke-width="2.2" fill="none"/><path d="M108 31 l10 -4 l10 4 l10 -4 l10 4 l10 -4" stroke="#1f2024" stroke-width="2.2" fill="none"/><path d="M60 76 Q200.0 52.2 240.0 42 Q280.0 52.2 420 76" stroke="#17181b" stroke-width="8" fill="none"/><path d="M217 53 l10 -4 l10 4 l10 -4 l10 4 l10 -4" stroke="#1f2024" stroke-width="2.2" fill="none"/><path d="M139 65 l10 -4 l10 4 l10 -4 l10 4 l10 -4" stroke="#1f2024" stroke-width="2.2" fill="none"/><path d="M60 110 Q200.0 86.2 240.0 76 Q280.0 86.2 420 110" stroke="#17181b" stroke-width="8" fill="none"/><path d="M262 87 l10 -4 l10 4 l10 -4 l10 4 l10 -4" stroke="#1f2024" stroke-width="2.2" fill="none"/><path d="M273 99 l10 -4 l10 4 l10 -4 l10 4 l10 -4" stroke="#1f2024" stroke-width="2.2" fill="none"/><path d="M60 144 Q200.0 120.2 240.0 110 Q280.0 120.2 420 144" stroke="#17181b" stroke-width="8" fill="none"/><path d="M115 121 l10 -4 l10 4 l10 -4 l10 4 l10 -4" stroke="#1f2024" stroke-width="2.2" fill="none"/><path d="M117 133 l10 -4 l10 4 l10 -4 l10 4 l10 -4" stroke="#1f2024" stroke-width="2.2" fill="none"/><path d="M60 178 Q200.0 154.2 240.0 144 Q280.0 154.2 420 178" stroke="#17181b" stroke-width="8" fill="none"/><path d="M269 155 l10 -4 l10 4 l10 -4 l10 4 l10 -4" stroke="#1f2024" stroke-width="2.2" fill="none"/><path d="M88 167 l10 -4 l10 4 l10 -4 l10 4 l10 -4" stroke="#1f2024" stroke-width="2.2" fill="none"/><path d="M60 212 Q200.0 188.2 240.0 178 Q280.0 188.2 420 212" stroke="#17181b" stroke-width="8" fill="none"/><path d="M249 189 l10 -4 l10 4 l10 -4 l10 4 l10 -4" stroke="#1f2024" stroke-width="2.2" fill="none"/><path d="M95 201 l10 -4 l10 4 l10 -4 l10 4 l10 -4" stroke="#1f2024" stroke-width="2.2" fill="none"/><path d="M60 246 Q200.0 222.2 240.0 212 Q280.0 222.2 420 246" stroke="#17181b" stroke-width="8" fill="none"/><path d="M114 223 l10 -4 l10 4 l10 -4 l10 4 l10 -4" stroke="#1f2024" stroke-width="2.2" fill="none"/><path d="M139 235 l10 -4 l10 4 l10 -4 l10 4 l10 -4" stroke="#1f2024" stroke-width="2.2" fill="none"/><path d="M60 280 Q200.0 256.2 240.0 246 Q280.0 256.2 420 280" stroke="#17181b" stroke-width="8" fill="none"/><path d="M217 257 l10 -4 l10 4 l10 -4 l10 4 l10 -4" stroke="#1f2024" stroke-width="2.2" fill="none"/><path d="M267 269 l10 -4 l10 4 l10 -4 l10 4 l10 -4" stroke="#1f2024" stroke-width="2.2" fill="none"/><path d="M60 314 Q200.0 290.2 240.0 280 Q280.0 290.2 420 314" stroke="#17181b" stroke-width="8" fill="none"/><path d="M194 291 l10 -4 l10 4 l10 -4 l10 4 l10 -4" stroke="#1f2024" stroke-width="2.2" fill="none"/><path d="M214 303 l10 -4 l10 4 l10 -4 l10 4 l10 -4" stroke="#1f2024" stroke-width="2.2" fill="none"/><path d="M60 348 Q200.0 324.2 240.0 314 Q280.0 324.2 420 348" stroke="#17181b" stroke-width="8" fill="none"/><path d="M185 325 l10 -4 l10 4 l10 -4 l10 4 l10 -4" stroke="#1f2024" stroke-width="2.2" fill="none"/><path d="M132 337 l10 -4 l10 4 l10 -4 l10 4 l10 -4" stroke="#1f2024" stroke-width="2.2" fill="none"/><path d="M60 382 Q200.0 358.2 240.0 348 Q280.0 358.2 420 382" stroke="#17181b" stroke-width="8" fill="none"/><path d="M231 359 l10 -4 l10 4 l10 -4 l10 4 l10 -4" stroke="#1f2024" stroke-width="2.2" fill="none"/><path d="M103 371 l10 -4 l10 4 l10 -4 l10 4 l10 -4" stroke="#1f2024" stroke-width="2.2" fill="none"/><path d="M60 416 Q200.0 392.2 240.0 382 Q280.0 392.2 420 416" stroke="#17181b" stroke-width="8" fill="none"/><path d="M110 393 l10 -4 l10 4 l10 -4 l10 4 l10 -4" stroke="#1f2024" stroke-width="2.2" fill="none"/><path d="M85 405 l10 -4 l10 4 l10 -4 l10 4 l10 -4" stroke="#1f2024" stroke-width="2.2" fill="none"/><path d="M60 450 Q200.0 426.2 240.0 416 Q280.0 426.2 420 450" stroke="#17181b" stroke-width="8" fill="none"/><path d="M277 427 l10 -4 l10 4 l10 -4 l10 4 l10 -4" stroke="#1f2024" stroke-width="2.2" fill="none"/><path d="M320 439 l10 -4 l10 4 l10 -4 l10 4 l10 -4" stroke="#1f2024" stroke-width="2.2" fill="none"/><rect x="171.0" y="0" width="18" height="360" fill="#121315"/><rect x="291.0" y="0" width="18" height="360" fill="#121315"/><rect width="480" height="360" fill="url(#sh)"/><text x="240.0" y="342" font-family="Helvetica,Arial,sans-serif" font-size="17" font-weight="600" fill="#ffffff" fill-opacity=".75" text-anchor="middle">Genesys 228 · tread</text><g><rect x="370" y="14" width="96" height="30" rx="15" fill="#ffd60a"/><text x="418" y="35" font-family="Helvetica,Arial,sans-serif" font-size="16" font-weight="800" letter-spacing="1.5" fill="#000" text-anchor="middle">SAMPLE</text></g></svg>